Artists include Miley Cyrus, Keri Hilson and Best New Artist Grammy winner Zac Brown, Barbra Streisand; Carlos Santana; Natalie Cole; BeBe Winans; the members of Heart; Freda Payne; Harry Connick Jr.; Earth, Wind & Fire; the Beach Boys' Brian Wilson and Al Jardine; Tony Bennett; film score composer A.R. Rahman; "American Idol" judge Randy Jackson; Patti Austin; Celine Dion,Gladys Knight, Mary Mary; Jamie Foxx, T-Pain, Kanye West, Bizzy Bone, Kid Cudi, LL Cool J, Snoop Dogg, Drake, Mann, Nipsey Hussle, Busta Rhymes, Swizz Beatz, and others. Alo featuring Michal Jackson from the original.

Format : MPEG-4
Format profile : Base Media
Codec ID : isom
File size : 107 MiB
Duration : 6min 50s
Overall bit rate : 2 175 Kbps

Video
ID : 2
Format : AVC
Format/Info : Advanced Video Codec
Format profile : High@L3.1
Format settings, CABAC : Yes
Format settings, ReFrames : 3 frames
Codec ID : avc1
Codec ID/Info : Advanced Video Coding
Duration : 6mn 50s
Bit rate mode : Variable
Bit rate : 2 011 Kbps
Maximum bit rate : 3 915 Kbps
Width : 1 280 pixels
Height : 720 pixels
Display aspect ratio : 16:9
Frame rate mode : Constant
Frame rate : 30.000 fps
Resolution : 24 bits
Colorimetry : 4:2:0
Scan type : Progressive
Bits/(Pixel*Frame) : 0.073
Stream size : 100 MiB (94%)

Audio
Format : AAC
Format/Info : Advanced Audio Codec
Duration : 6mn 50s
Bit rate mode : Variable
Bit rate : 125 Kbps
Maximum bit rate : 202 Kbps
Channel(s) : 2 channels
Channel positions : L R
Sampling rate : 44.1 KHz
Resolution : 16 bits
Stream size : 6.12 MiB (6%)
